<svg width="988" height="790" viewBox="0 0 988 790" fill="none" xmlns="http://www.w3.org/2000/svg">
<g filter="url(#filter0_f)">
<path d="M225.669 191.03C192.039 158.437 160.765 106.036 174.088 57.6733C203.615 -19.9674 251.857 -94.0992 372.306 -103.904C413.018 -101.822 452.227 -99.549 491.491 -87.6118C517.793 -79.6152 541.727 -65.39 565.359 -51.6275C601.167 -30.7746 630.997 6.11321 653.402 40.9957C662.779 55.5957 671.676 68.6477 678.982 84.6235C684.501 96.6922 694.285 109.989 697.348 122.871C703.116 147.129 701.215 176.08 685.972 196.413C677.863 207.23 670.473 219.312 661.839 229.655C652.376 240.994 631.882 244.726 618.543 248.55C578.077 260.151 559.728 249.284 519.733 239.063C497.642 233.418 460.978 205.533 438.864 199.584C402.246 189.732 362.993 221.223 325.359 221.382C306.394 221.462 285.632 222.872 267.246 217.344C249.573 212.03 238.72 203.679 225.669 191.03Z" fill="url(#paint0_radial)"/>
<path d="M632.746 104.91C634.854 71.7897 646.943 35.0906 672.667 16.1317C689.788 0.741872 734.441 -32.1623 776.085 -40.6602C810.019 -39.35 859.325 -40.7874 889.367 -15.2291C903.538 -3.17373 914.513 17.0085 925.554 31.9896C943.46 56.2849 968.484 81.9395 981.133 109.281C989.299 126.932 990.78 147.58 988.12 165.782C983.955 194.278 979.503 221.382 969.576 247.83C946.961 308.086 896.991 349.107 841.426 376.392L841.27 376.469C818.978 387.416 793.444 399.955 767.14 399.17C741.183 398.395 715.627 379.898 699.763 358.722C644.882 285.462 627.237 191.47 632.746 104.91Z" fill="url(#paint1_radial)" fill-opacity="0.8"/>
<path d="M655.349 -110.914C696.872 -125.391 743.856 -141.772 784.932 -120.055L801.763 -120.8C813.386 -118.606 825.057 -116.493 836.984 -115.056C856.922 -112.654 871.248 -104.889 890.111 -97.6837C922.754 -85.216 943.334 -46.2759 961.072 -18.5086C988.996 25.2058 1015.62 67.4932 1032.73 116.619C1044.19 149.528 1047.74 184.35 1051.52 218.534C1057.26 270.329 1042.73 327.171 1024.71 374.899C1017.17 394.876 1010.8 413.268 1000.37 432.06C992.495 446.256 986.542 465.74 976.05 477.959C956.292 500.966 926.242 519.307 894.893 517.754C878.217 516.928 860.818 517.735 844.223 516.033C826.032 514.167 807.245 495.516 793.637 484.355C752.352 450.497 726.388 414.4 707.046 365.719C696.362 338.831 689.547 311.339 679.147 284.213C661.927 239.297 632.464 199.957 604.59 161.01C590.542 141.383 573.855 120.824 565.784 97.8624C558.027 75.7927 558.298 58.6682 561.203 36.2481C568.688 -21.5246 597.511 -90.7501 655.184 -110.857L655.349 -110.914Z" fill="url(#paint2_radial)" fill-opacity="0.8"/>
</g>
<defs>
<filter id="filter0_f" x="70.9448" y="-230.572" width="1081.85" height="848.418" filterUnits="userSpaceOnUse" color-interpolation-filters="sRGB">
<feFlood flood-opacity="0" result="BackgroundImageFix"/>
<feBlend mode="normal" in="SourceGraphic" in2="BackgroundImageFix" result="shape"/>
<feGaussianBlur stdDeviation="50" result="effect1_foregroundBlur"/>
</filter>
<radialGradient id="paint0_radial" cx="0" cy="0" r="1" gradientUnits="userSpaceOnUse" gradientTransform="translate(329.949 59.8911) rotate(33.1948) scale(385.629 567.282)">
<stop stop-color="white"/>
<stop offset="0.484375" stop-color="#FEE3DA"/>
<stop offset="1" stop-color="#DAE2FE"/>
</radialGradient>
<radialGradient id="paint1_radial" cx="0" cy="0" r="1" gradientUnits="userSpaceOnUse" gradientTransform="translate(801.42 87.9901) rotate(84.907) scale(214.618 186.007)">
<stop stop-color="white"/>
<stop offset="0.458333" stop-color="#FEF0EC"/>
<stop offset="1" stop-color="#DAFAFE"/>
</radialGradient>
<radialGradient id="paint2_radial" cx="0" cy="0" r="1" gradientUnits="userSpaceOnUse" gradientTransform="translate(942.433 210.329) rotate(-169.097) scale(320.786 302.394)">
<stop stop-color="#DAFAFE"/>
<stop offset="0.40625" stop-color="#DAEFFE"/>
<stop offset="0.682292" stop-color="#DAE2FE"/>
<stop offset="1" stop-color="#F0FDFF"/>
</radialGradient>
</defs>
</svg>
