<svg width="472" height="32" viewBox="0 0 472 32" fill="none" xmlns="http://www.w3.org/2000/svg">
<path d="M0 21.9518C0 21.469 0.0301869 20.9411 0.0905608 20.3677C0.150933 19.7642 0.286775 19.2211 0.498082 18.7383C0.709389 18.2555 1.01126 17.8482 1.40368 17.5163C1.8263 17.1844 2.38475 17.0183 3.07904 17.0183C3.07904 17.4107 3.03376 17.7728 2.94322 18.1047C2.88284 18.4366 2.79229 18.7685 2.67153 19.1004C2.58096 19.4323 2.49042 19.7943 2.39985 20.1867C2.33948 20.5487 2.30929 20.9561 2.30929 21.4087C2.30929 22.5553 2.46023 23.6265 2.7621 24.6222C3.06395 25.6182 3.51675 26.4931 4.1205 27.2475C4.75441 27.9716 5.52418 28.545 6.42978 28.9673C7.36559 29.3898 8.46739 29.601 9.73525 29.601C10.2786 29.601 10.9427 29.4805 11.7276 29.239C12.5124 28.9977 13.2973 28.7108 14.0821 28.3789C14.867 28.047 15.5915 27.7151 16.2556 27.3832C16.9197 27.0513 17.3876 26.8101 17.6593 26.6592C18.3234 26.2969 18.8517 25.7992 19.2441 25.1655C19.6365 24.5017 19.9384 23.7926 20.1497 23.0381C20.361 22.2536 20.4968 21.469 20.5572 20.6844C20.6176 19.8697 20.6478 19.1457 20.6478 18.512C20.6478 17.4862 20.5421 16.4902 20.3308 15.5246C20.1497 14.5289 19.9384 13.5484 19.6969 12.5828C19.4856 11.6172 19.2743 10.6517 19.063 9.68608C18.8818 8.7204 18.7913 7.73973 18.7913 6.74397C19.1233 5.80857 19.6365 4.9637 20.3308 4.20934C21.0553 3.4248 21.8703 2.76097 22.7759 2.21782C23.7117 1.64452 24.7079 1.19189 25.7643 0.859985C26.821 0.528057 27.8472 0.331928 28.8436 0.271573C29.6586 0.482791 30.2774 0.754363 30.7001 1.08629C31.1225 1.38804 31.4092 1.71994 31.5602 2.08205C31.7415 2.44413 31.7866 2.79115 31.6962 3.12305C31.6055 3.45498 31.4546 3.75672 31.2433 4.0283C30.9113 3.30411 30.4736 2.82132 29.9301 2.57993C29.417 2.33853 28.8284 2.26309 28.1643 2.35362C27.5304 2.44413 26.8812 2.67043 26.2172 3.03254C25.5531 3.39462 24.9192 3.80199 24.3154 4.25461C23.7117 4.70722 23.1835 5.19001 22.7307 5.70298C22.2779 6.18577 21.9458 6.6082 21.7345 6.9703C21.7345 7.87553 21.8251 8.76567 22.0062 9.64077C22.2175 10.4856 22.4288 11.3456 22.6401 12.2205C22.8816 13.0656 23.0929 13.9254 23.274 14.8006C23.4853 15.6454 23.591 16.5206 23.591 17.4257C23.591 19.5983 23.2438 21.5898 22.5495 23.4002C21.8854 25.1804 20.9043 26.7194 19.6063 28.0169C18.3385 29.2843 16.7839 30.265 14.9425 30.959C13.1313 31.6529 11.0936 32 8.82962 32C7.41085 32 6.14302 31.7132 5.02609 31.14C3.93938 30.5666 3.01869 29.8124 2.26401 28.8769C1.53953 27.9114 0.981071 26.825 0.588642 25.6182C0.196213 24.4111 0 23.189 0 21.9518ZM125.969 25.5275C125.607 26.0103 125.305 26.5534 125.064 27.1569C124.822 27.7605 124.551 28.3339 124.249 28.8769C123.947 29.42 123.585 29.8726 123.162 30.2347C122.739 30.597 122.181 30.778 121.487 30.778C120.913 30.778 120.521 30.6873 120.31 30.5063C120.098 30.2952 119.992 29.8878 119.992 29.2843C119.992 28.56 120.189 27.7605 120.581 26.8853C121.004 26.0103 121.502 25.1655 122.075 24.3508C122.649 23.506 123.238 22.7214 123.841 21.9971C124.445 21.273 124.943 20.6844 125.335 20.232L133.712 2.12732C133.924 1.61435 134.301 1.13156 134.844 0.678945C135.418 0.226306 136.007 0 136.61 0V1.49364L131.811 12.5828V13.6689C132.324 13.6689 132.807 13.5935 133.26 13.4426C133.712 13.2616 134.165 13.0656 134.618 12.8542C135.071 12.6431 135.539 12.4621 136.022 12.3112C136.535 12.1302 137.093 12.0395 137.697 12.0395C138.24 12.4016 138.527 12.8542 138.557 13.3975C138.588 13.9104 138.452 14.4836 138.15 15.1173C137.848 15.7208 137.425 16.3393 136.882 16.973C136.369 17.6067 135.825 18.2254 135.252 18.8287C134.678 19.4021 134.12 19.9151 133.577 20.3677C133.063 20.8204 132.671 21.1672 132.399 21.4087C131.946 21.7708 131.524 22.0272 131.131 22.1781C130.769 22.2989 130.452 22.4196 130.181 22.5404C129.909 22.6609 129.698 22.8419 129.547 23.0834C129.426 23.3247 129.366 23.7321 129.366 24.3055C129.366 25.1503 129.592 25.8445 130.045 26.3875C130.497 26.9004 131.086 27.3078 131.811 27.6096C132.565 27.9113 133.395 28.1225 134.301 28.2432C135.237 28.3339 136.173 28.3789 137.109 28.3789C138.044 28.3789 138.935 28.3488 139.78 28.2886C140.625 28.1979 141.35 28.1076 141.953 28.0169L142.497 28.56C142.165 29.0126 141.651 29.4501 140.957 29.8726C140.293 30.265 139.554 30.6271 138.739 30.959C137.954 31.2608 137.169 31.5172 136.384 31.7284C135.599 31.9094 134.95 32 134.437 32C133.471 32 132.535 31.8491 131.63 31.5473C130.724 31.2154 129.894 30.7628 129.139 30.1896C128.384 29.6162 127.72 28.9372 127.147 28.1526C126.603 27.3379 126.211 26.463 125.969 25.5275ZM134.89 15.3436C134.618 15.3436 134.211 15.4492 133.667 15.6606C133.124 15.8717 132.58 16.1434 132.037 16.4753C131.494 16.8072 131.026 17.1692 130.633 17.5616C130.241 17.9538 130.045 18.3459 130.045 18.7383V19.055C130.256 18.9647 130.618 18.8138 131.131 18.6026C131.675 18.3912 132.218 18.1348 132.762 17.833C133.335 17.5011 133.833 17.1239 134.256 16.7016C134.678 16.2791 134.89 15.8264 134.89 15.3436ZM234.325 29.601C233.812 28.4544 233.585 27.3379 233.646 26.2518C233.706 25.1354 233.948 24.0943 234.37 23.1288C234.823 22.1328 235.397 21.2427 236.091 20.4584C236.815 19.6437 237.585 18.9495 238.4 18.3763C239.215 17.7728 240.03 17.3201 240.845 17.0183C241.691 16.7165 242.43 16.596 243.064 16.6563C243.698 16.6864 244.196 16.9127 244.558 17.3353C244.921 17.7576 245.041 18.4064 244.921 19.2814C244.921 20.4584 244.543 21.4842 243.788 22.3591C243.064 23.2343 242.249 24.0189 241.343 24.7128C240.468 25.4068 239.653 26.0404 238.898 26.6139C238.174 27.1569 237.812 27.6698 237.812 28.1526C237.812 28.4243 237.962 28.6354 238.264 28.7863C238.596 28.9372 238.974 29.0579 239.396 29.1486C239.819 29.2088 240.242 29.2541 240.664 29.2843C241.087 29.3144 241.389 29.3445 241.57 29.3747C244.407 28.7714 246.535 28.4091 247.954 28.2886C249.373 28.1377 250.264 28.1526 250.626 28.3339C250.988 28.4845 250.912 28.7412 250.399 29.1033C249.916 29.4352 249.162 29.7972 248.135 30.1896C247.109 30.5516 245.917 30.8835 244.558 31.1853C243.2 31.4871 241.857 31.6681 240.528 31.7284C239.2 31.7585 237.962 31.6228 236.815 31.321C235.698 31.0192 234.868 30.4461 234.325 29.601ZM242.249 19.2814C241.645 19.2814 241.072 19.4475 240.528 19.7794C239.985 20.1113 239.487 20.5338 239.034 21.0467C238.612 21.5295 238.249 22.0725 237.947 22.6761C237.646 23.2493 237.419 23.7926 237.268 24.3055C237.329 24.3356 237.374 24.3508 237.404 24.3508H237.54C237.962 24.3508 238.445 24.1698 238.989 23.8075C239.532 23.4455 240.045 23.008 240.528 22.4951C241.011 21.9518 241.419 21.3936 241.751 20.8204C242.083 20.247 242.249 19.734 242.249 19.2814ZM342.59 29.601C342.077 28.4544 341.851 27.3379 341.91 26.2518C341.972 25.1354 342.214 24.0943 342.636 23.1288C343.087 22.1328 343.662 21.2427 344.357 20.4584C345.081 19.6437 345.851 18.9495 346.665 18.3763C347.479 17.7728 348.296 17.3201 349.11 17.0183C349.955 16.7165 350.694 16.596 351.33 16.6563C351.964 16.6864 352.461 16.9127 352.824 17.3353C353.185 17.7576 353.306 18.4064 353.185 19.2814C353.185 20.4584 352.809 21.4842 352.054 22.3591C351.33 23.2343 350.514 24.0189 349.609 24.7128C348.734 25.4068 347.917 26.0404 347.162 26.6139C346.438 27.1569 346.078 27.6698 346.078 28.1526C346.078 28.4243 346.227 28.6354 346.529 28.7863C346.861 28.9372 347.239 29.0579 347.662 29.1486C348.084 29.2088 348.507 29.2541 348.929 29.2843C349.352 29.3144 349.653 29.3445 349.833 29.3747C352.672 28.7714 354.8 28.4091 356.219 28.2886C357.639 28.1377 358.527 28.1526 358.89 28.3339C359.254 28.4845 359.176 28.7412 358.664 29.1033C358.182 29.4352 357.427 29.7972 356.4 30.1896C355.374 30.5516 354.182 30.8835 352.824 31.1853C351.464 31.4871 350.122 31.6681 348.793 31.7284C347.466 31.7585 346.227 31.6228 345.081 31.321C343.963 31.0192 343.133 30.4461 342.59 29.601ZM350.514 19.2814C349.911 19.2814 349.336 19.4475 348.793 19.7794C348.249 20.1113 347.752 20.5338 347.299 21.0467C346.876 21.5295 346.513 22.0725 346.212 22.6761C345.91 23.2493 345.684 23.7926 345.534 24.3055C345.593 24.3356 345.64 24.3508 345.668 24.3508H345.805C346.227 24.3508 346.711 24.1698 347.255 23.8075C347.796 23.4455 348.311 23.008 348.793 22.4951C349.277 21.9518 349.684 21.3936 350.016 20.8204C350.349 20.247 350.514 19.734 350.514 19.2814ZM451.261 29.918C451.261 29.6463 451.261 29.4352 451.261 29.2843C451.261 29.1334 451.277 28.9977 451.307 28.8769C451.367 28.726 451.444 28.5752 451.534 28.4243C451.624 28.2734 451.745 28.0772 451.897 27.8359C452.137 27.4134 452.59 26.6741 453.255 25.6182C453.919 24.5619 454.628 23.4455 455.383 22.2688C456.137 21.0918 456.846 19.9756 457.51 18.9193C458.206 17.8631 458.688 17.1239 458.961 16.7016C458.989 16.6715 459.066 16.6563 459.187 16.6563C459.337 16.6563 459.442 16.6563 459.504 16.6563C459.563 16.6563 459.669 16.6563 459.821 16.6563C459.97 16.6563 460.063 16.6715 460.091 16.7016C460.122 16.7317 460.182 16.8072 460.274 16.9279C460.393 17.0484 460.514 17.1844 460.635 17.3353C460.787 17.4558 460.908 17.5765 460.998 17.6973C461.119 17.8181 461.209 17.8783 461.269 17.8783C461.542 17.8783 461.828 17.7877 462.129 17.6067C462.43 17.4257 462.734 17.2295 463.036 17.0183C463.368 16.777 463.7 16.5657 464.033 16.3846C464.362 16.2036 464.71 16.1132 465.073 16.1132C465.465 16.1132 465.828 16.2036 466.16 16.3846C466.493 16.5657 466.779 16.792 467.021 17.0636C467.26 17.3353 467.443 17.6371 467.564 17.969C467.714 18.3009 467.791 18.6328 467.791 18.9647C467.791 19.6586 467.683 20.3224 467.471 20.9561C467.291 21.5898 467.08 22.2234 466.838 22.8571C466.598 23.4607 466.372 24.0792 466.16 24.7128C465.977 25.3164 465.887 25.9501 465.887 26.6139C465.887 27.2777 465.965 27.7605 466.114 28.0622C466.266 28.3339 466.688 28.4696 467.381 28.4696C468.198 28.4696 468.968 28.3488 469.692 28.1076C470.447 27.866 471.217 27.7453 472 27.7453C472 28.4696 471.773 29.0731 471.323 29.5559C470.9 30.0387 470.357 30.4309 469.692 30.7326C469.058 31.0043 468.363 31.2002 467.608 31.321C466.884 31.4116 466.22 31.4567 465.617 31.4567C464.468 31.4567 463.623 31.14 463.079 30.5063C462.567 29.8425 462.312 28.9673 462.312 27.8812C462.312 27.1569 462.43 26.4779 462.672 25.8445C462.946 25.2108 463.231 24.5921 463.533 23.9885C463.865 23.3852 464.167 22.7817 464.44 22.1781C464.71 21.5748 464.847 20.926 464.847 20.232C464.847 20.051 464.816 19.8095 464.756 19.5077C464.695 19.2059 464.499 19.055 464.167 19.055C463.172 19.055 462.266 19.372 461.452 20.0057C460.666 20.6394 459.942 21.4389 459.277 22.4045C458.644 23.37 458.054 24.4111 457.51 25.5275C456.998 26.644 456.501 27.685 456.016 28.6506C455.563 29.6162 455.125 30.4157 454.703 31.0494C454.28 31.683 453.842 32 453.391 32C452.758 32 452.243 31.8038 451.851 31.4116C451.459 31.0192 451.261 30.5215 451.261 29.918Z" fill="#3250B9"/>
</svg>
