<svg width="184" height="13" viewBox="0 0 184 13" fill="none" xmlns="http://www.w3.org/2000/svg">
<path d="M0 8.52536C0 8.33786 0.0117188 8.13286 0.0351564 7.91016C0.0585934 7.67576 0.111328 7.46486 0.193359 7.27736C0.27539 7.08986 0.392578 6.93166 0.544921 6.80276C0.708984 6.67386 0.925779 6.60936 1.19531 6.60936C1.19531 6.76176 1.17773 6.90236 1.14258 7.03126C1.11914 7.16016 1.08399 7.28906 1.03711 7.41796C1.00195 7.54686 0.966799 7.68746 0.931639 7.83986C0.908203 7.98046 0.896484 8.13866 0.896484 8.31446C0.896484 8.75976 0.955079 9.17576 1.07227 9.56246C1.18945 9.94926 1.36523 10.2891 1.59961 10.5821C1.8457 10.8633 2.14453 11.086 2.49609 11.25C2.85938 11.4141 3.28711 11.4961 3.7793 11.4961C3.99023 11.4961 4.24805 11.4493 4.55273 11.3555C4.85742 11.2618 5.16211 11.1504 5.4668 11.0215C5.77149 10.8926 6.05273 10.7637 6.31055 10.6348C6.56836 10.5059 6.75 10.4122 6.85547 10.3536C7.11328 10.2129 7.31836 10.0196 7.4707 9.77346C7.62305 9.51566 7.74023 9.24026 7.82227 8.94726C7.9043 8.64256 7.95703 8.33786 7.98047 8.03316C8.00391 7.71676 8.01563 7.43556 8.01563 7.18946C8.01563 6.79106 7.97461 6.40426 7.89258 6.02926C7.82227 5.64256 7.74023 5.26176 7.64649 4.88676C7.56445 4.51176 7.48242 4.13676 7.40039 3.76176C7.33008 3.38672 7.29492 3.00586 7.29492 2.61914C7.42383 2.25586 7.62305 1.92774 7.89258 1.63477C8.17383 1.33008 8.49023 1.07227 8.8418 0.86133C9.20508 0.63868 9.5918 0.46289 10.0019 0.33399C10.4121 0.20508 10.8105 0.12891 11.1973 0.10547C11.5137 0.1875 11.7539 0.29297 11.918 0.42188C12.082 0.53907 12.1933 0.66797 12.2519 0.8086C12.3223 0.94922 12.3398 1.08399 12.3047 1.21289C12.2695 1.3418 12.2109 1.45899 12.1289 1.56446C12 1.28321 11.8301 1.09571 11.6191 1.00196C11.4199 0.90821 11.1914 0.87891 10.9336 0.91407C10.6875 0.94922 10.4355 1.03711 10.1777 1.17774C9.91991 1.31836 9.67383 1.47657 9.43945 1.65235C9.20508 1.82813 9 2.01563 8.82422 2.21485C8.64844 2.40235 8.51953 2.56641 8.4375 2.70704C8.4375 3.0586 8.47266 3.4043 8.54297 3.74416C8.625 4.07226 8.70703 4.40626 8.78906 4.74606C8.88281 5.07426 8.96484 5.40816 9.03516 5.74806C9.11719 6.07616 9.1582 6.41606 9.1582 6.76756C9.1582 7.61136 9.02344 8.38476 8.75391 9.08786C8.49609 9.77926 8.11523 10.377 7.61133 10.8809C7.11914 11.3731 6.51563 11.754 5.80078 12.0235C5.09766 12.293 4.30664 12.4278 3.42773 12.4278C2.87695 12.4278 2.38477 12.3164 1.95117 12.0938C1.5293 11.8711 1.17188 11.5782 0.878906 11.2149C0.597656 10.8399 0.380859 10.418 0.228515 9.94926C0.0761714 9.48046 0 9.00586 0 8.52536ZM48.9023 9.91406C48.7617 10.1016 48.6445 10.3125 48.5508 10.5469C48.457 10.7813 48.3516 11.004 48.2344 11.2149C48.1172 11.4258 47.9766 11.6016 47.8125 11.7422C47.6484 11.8829 47.4316 11.9532 47.1621 11.9532C46.9394 11.9532 46.7871 11.918 46.7051 11.8477C46.623 11.7657 46.582 11.6075 46.582 11.3731C46.582 11.0918 46.6582 10.7813 46.8105 10.4414C46.9746 10.1016 47.168 9.77346 47.3906 9.45706C47.6133 9.12896 47.8418 8.82426 48.0762 8.54296C48.3105 8.26176 48.5039 8.03316 48.6562 7.85746L51.9082 0.82618C51.9902 0.62696 52.1367 0.43946 52.3476 0.26368C52.5703 0.08789 52.7988 0 53.0332 0V0.58008L51.1699 4.88676V5.30856C51.3691 5.30856 51.5566 5.27926 51.7324 5.22066C51.9082 5.15036 52.084 5.07426 52.2598 4.99216C52.4355 4.91016 52.6172 4.83986 52.8047 4.78126C53.0039 4.71096 53.2207 4.67576 53.4551 4.67576C53.666 4.81636 53.7773 4.99216 53.7891 5.20316C53.8008 5.40236 53.748 5.62496 53.6309 5.87106C53.5137 6.10546 53.3496 6.34566 53.1387 6.59176C52.9394 6.83786 52.7285 7.07816 52.5059 7.31246C52.2832 7.53516 52.0664 7.73436 51.8555 7.91016C51.6562 8.08596 51.5039 8.22066 51.3984 8.31446C51.2226 8.45506 51.0586 8.55466 50.9062 8.61326C50.7656 8.66016 50.6426 8.70706 50.5371 8.75396C50.4316 8.80076 50.3496 8.87106 50.291 8.96486C50.2441 9.05856 50.2207 9.21676 50.2207 9.43946C50.2207 9.76756 50.3086 10.0372 50.4844 10.2481C50.6601 10.4473 50.8887 10.6055 51.1699 10.7227C51.4629 10.8399 51.7851 10.9219 52.1367 10.9688C52.5 11.004 52.8633 11.0215 53.2266 11.0215C53.5898 11.0215 53.9355 11.0098 54.2637 10.9864C54.5918 10.9512 54.873 10.9161 55.1074 10.8809L55.3183 11.0918C55.1894 11.2676 54.9902 11.4375 54.7207 11.6016C54.4629 11.754 54.1758 11.8946 53.8594 12.0235C53.5547 12.1407 53.25 12.2403 52.9453 12.3223C52.6406 12.3926 52.3887 12.4278 52.1894 12.4278C51.8144 12.4278 51.4512 12.3692 51.0996 12.252C50.748 12.1231 50.4258 11.9473 50.1328 11.7247C49.8398 11.502 49.582 11.2383 49.3594 10.9336C49.1484 10.6172 48.9961 10.2774 48.9023 9.91406ZM52.3652 5.95896C52.2598 5.95896 52.1016 5.99996 51.8906 6.08206C51.6797 6.16406 51.4687 6.26956 51.2578 6.39846C51.0469 6.52736 50.8652 6.66796 50.7129 6.82036C50.5605 6.97266 50.4844 7.12496 50.4844 7.27736V7.40036C50.5664 7.36526 50.707 7.30666 50.9062 7.22466C51.1172 7.14256 51.3281 7.04296 51.5391 6.92576C51.7617 6.79686 51.9551 6.65036 52.1191 6.48636C52.2832 6.32226 52.3652 6.14646 52.3652 5.95896ZM90.9668 11.4961C90.7676 11.0508 90.6797 10.6172 90.7031 10.1954C90.7266 9.76176 90.8203 9.35746 90.9844 8.98246C91.1601 8.59566 91.3828 8.24996 91.6523 7.94536C91.9336 7.62896 92.2324 7.35936 92.5488 7.13676C92.8652 6.90236 93.1816 6.72656 93.498 6.60936C93.8262 6.49216 94.1133 6.44536 94.3594 6.46876C94.6055 6.48046 94.7988 6.56836 94.9394 6.73246C95.0801 6.89646 95.1269 7.14846 95.0801 7.48826C95.0801 7.94536 94.9336 8.34376 94.6406 8.68356C94.3594 9.02346 94.043 9.32816 93.6914 9.59766C93.3516 9.86716 93.0351 10.1133 92.7422 10.336C92.4609 10.5469 92.3203 10.7461 92.3203 10.9336C92.3203 11.0391 92.3789 11.1211 92.4961 11.1797C92.625 11.2383 92.7715 11.2852 92.9355 11.3204C93.0996 11.3438 93.2637 11.3614 93.4277 11.3731C93.5918 11.3848 93.709 11.3965 93.7793 11.4082C94.8809 11.1739 95.707 11.0332 96.2578 10.9864C96.8086 10.9278 97.1543 10.9336 97.2949 11.004C97.4355 11.0625 97.4062 11.1622 97.207 11.3028C97.0195 11.4317 96.7266 11.5723 96.3281 11.7247C95.9297 11.8653 95.4668 11.9942 94.9394 12.1114C94.4121 12.2286 93.8906 12.2989 93.375 12.3223C92.8594 12.334 92.3789 12.2813 91.9336 12.1641C91.5 12.0469 91.1777 11.8243 90.9668 11.4961ZM94.043 7.48826C93.8086 7.48826 93.5859 7.55276 93.375 7.68166C93.1641 7.81056 92.9707 7.97466 92.7949 8.17386C92.6309 8.36136 92.4902 8.57226 92.373 8.80666C92.2559 9.02926 92.168 9.24026 92.1094 9.43946C92.1328 9.45116 92.1504 9.45706 92.1621 9.45706H92.2148C92.3789 9.45706 92.5664 9.38676 92.7773 9.24606C92.9883 9.10546 93.1875 8.93556 93.375 8.73636C93.5625 8.52536 93.7207 8.30856 93.8496 8.08596C93.9785 7.86326 94.043 7.66406 94.043 7.48826ZM132.996 11.4961C132.797 11.0508 132.709 10.6172 132.732 10.1954C132.756 9.76176 132.85 9.35746 133.014 8.98246C133.189 8.59566 133.412 8.24996 133.682 7.94536C133.963 7.62896 134.262 7.35936 134.578 7.13676C134.894 6.90236 135.211 6.72656 135.527 6.60936C135.855 6.49216 136.142 6.44536 136.389 6.46876C136.635 6.48046 136.828 6.56836 136.969 6.73246C137.109 6.89646 137.156 7.14846 137.109 7.48826C137.109 7.94536 136.963 8.34376 136.67 8.68356C136.389 9.02346 136.072 9.32816 135.721 9.59766C135.381 9.86716 135.064 10.1133 134.771 10.336C134.49 10.5469 134.35 10.7461 134.35 10.9336C134.35 11.0391 134.408 11.1211 134.525 11.1797C134.654 11.2383 134.801 11.2852 134.965 11.3204C135.129 11.3438 135.293 11.3614 135.457 11.3731C135.621 11.3848 135.738 11.3965 135.808 11.4082C136.91 11.1739 137.736 11.0332 138.287 10.9864C138.838 10.9278 139.183 10.9336 139.324 11.004C139.465 11.0625 139.435 11.1622 139.236 11.3028C139.049 11.4317 138.756 11.5723 138.357 11.7247C137.959 11.8653 137.496 11.9942 136.969 12.1114C136.441 12.2286 135.92 12.2989 135.404 12.3223C134.889 12.334 134.408 12.2813 133.963 12.1641C133.529 12.0469 133.207 11.8243 132.996 11.4961ZM136.072 7.48826C135.838 7.48826 135.615 7.55276 135.404 7.68166C135.193 7.81056 135 7.97466 134.824 8.17386C134.66 8.36136 134.519 8.57226 134.402 8.80666C134.285 9.02926 134.197 9.24026 134.139 9.43946C134.162 9.45116 134.18 9.45706 134.191 9.45706H134.244C134.408 9.45706 134.596 9.38676 134.807 9.24606C135.017 9.10546 135.217 8.93556 135.404 8.73636C135.592 8.52536 135.75 8.30856 135.879 8.08596C136.008 7.86326 136.072 7.66406 136.072 7.48826ZM175.183 11.6192C175.183 11.5137 175.183 11.4317 175.183 11.3731C175.183 11.3145 175.189 11.2618 175.201 11.2149C175.224 11.1563 175.254 11.0977 175.289 11.0391C175.324 10.9805 175.371 10.9043 175.43 10.8106C175.523 10.6465 175.699 10.3594 175.957 9.94926C176.215 9.53906 176.49 9.10546 176.783 8.64846C177.076 8.19136 177.351 7.75786 177.609 7.34766C177.879 6.93746 178.066 6.65036 178.172 6.48636C178.183 6.47466 178.213 6.46876 178.26 6.46876C178.318 6.46876 178.359 6.46876 178.383 6.46876C178.406 6.46876 178.447 6.46876 178.506 6.46876C178.564 6.46876 178.6 6.47466 178.611 6.48636C178.623 6.49806 178.646 6.52736 178.682 6.57426C178.728 6.62106 178.775 6.67386 178.822 6.73246C178.881 6.77926 178.928 6.82616 178.963 6.87306C179.01 6.91996 179.045 6.94336 179.068 6.94336C179.174 6.94336 179.285 6.90816 179.402 6.83786C179.519 6.76756 179.637 6.69136 179.754 6.60936C179.883 6.51566 180.012 6.43356 180.141 6.36326C180.269 6.29296 180.404 6.25786 180.545 6.25786C180.697 6.25786 180.838 6.29296 180.967 6.36326C181.096 6.43356 181.207 6.52146 181.301 6.62696C181.394 6.73246 181.465 6.84966 181.512 6.97856C181.57 7.10746 181.6 7.23636 181.6 7.36526C181.6 7.63476 181.558 7.89256 181.476 8.13866C181.406 8.38476 181.324 8.63086 181.23 8.87696C181.137 9.11136 181.049 9.35156 180.967 9.59766C180.896 9.83206 180.861 10.0782 180.861 10.336C180.861 10.5938 180.891 10.7813 180.949 10.8985C181.008 11.004 181.172 11.0567 181.441 11.0567C181.758 11.0567 182.057 11.0098 182.338 10.9161C182.631 10.8223 182.93 10.7754 183.234 10.7754C183.234 11.0567 183.146 11.2911 182.971 11.4786C182.807 11.6661 182.596 11.8184 182.338 11.9356C182.092 12.0411 181.822 12.1172 181.529 12.1641C181.248 12.1993 180.99 12.2168 180.756 12.2168C180.31 12.2168 179.982 12.0938 179.771 11.8477C179.572 11.5899 179.473 11.25 179.473 10.8282C179.473 10.5469 179.519 10.2832 179.613 10.0372C179.719 9.79106 179.83 9.55076 179.947 9.31636C180.076 9.08206 180.193 8.84766 180.299 8.61326C180.404 8.37896 180.457 8.12696 180.457 7.85746C180.457 7.78716 180.445 7.69336 180.422 7.57616C180.398 7.45896 180.322 7.40036 180.193 7.40036C179.807 7.40036 179.455 7.52346 179.139 7.76956C178.834 8.01566 178.553 8.32616 178.295 8.70116C178.049 9.07616 177.82 9.48046 177.609 9.91406C177.41 10.3477 177.217 10.752 177.029 11.127C176.853 11.502 176.683 11.8125 176.519 12.0586C176.355 12.3047 176.185 12.4278 176.01 12.4278C175.764 12.4278 175.564 12.3516 175.412 12.1993C175.26 12.0469 175.183 11.8536 175.183 11.6192Z" fill="#421102"/>
</svg>
